<?xml version="1.0" encoding="utf-8"?>
<!-- Generator: Adobe Illustrator 16.0.0, SVG Export Plug-In . SVG Version: 6.00 Build 0)  -->
<!DOCTYPE svg PUBLIC "-//W3C//DTD SVG 1.1//EN" "http://www.w3.org/Graphics/SVG/1.1/DTD/svg11.dtd">
<svg version="1.1" id="cut-font" xmlns="http://www.w3.org/2000/svg" xmlns:xlink="http://www.w3.org/1999/xlink" x="0px" y="0px"
	 width="303px" height="150.75px" viewBox="0 0 303 150.75" enable-background="new 0 0 303 150.75" xml:space="preserve">
<g>
	<path fill="#001A5D" d="M157.111,67.183c-3.356,0-6.242,1.272-8.654,3.816c-2.413,2.545-3.619,5.915-3.619,10.11
		c0,4.197,1.206,7.565,3.619,10.109c2.412,2.545,5.297,3.816,8.654,3.816c3.408,0,6.308-1.26,8.693-3.776
		c2.387-2.518,3.58-5.901,3.58-10.149s-1.193-7.631-3.58-10.149S160.52,67.183,157.111,67.183z"/>
	<path fill="#001A5D" d="M230.674,67.183c-3.357,0-6.242,1.272-8.654,3.816c-2.412,2.545-3.619,5.915-3.619,10.11
		c0,4.197,1.207,7.565,3.619,10.109c2.412,2.545,5.297,3.816,8.654,3.816c3.409,0,6.307-1.26,8.694-3.776
		c2.386-2.518,3.58-5.901,3.58-10.149s-1.194-7.631-3.58-10.149C236.98,68.442,234.083,67.183,230.674,67.183z"/>
	<path fill="#001A5D" d="M294.281,70.397c-1.492-1.792-20.553-23.33-22.988-25.974C266.807,39.552,265.5,40,265.5,40H141.812
		C129.366,18.552,106.168,4.117,79.585,4.117c-39.717,0-71.914,32.197-71.914,71.914c0,39.717,32.197,71.914,71.914,71.914
		c28.628,0,53.345-16.73,64.917-40.945c8.208,0,22.118,0,23.789,0c2.389,0,3.73,0.061,5.075,1.402
		c1.344,1.344,26.59,28.852,28.661,30.923c2.07,2.071,2.519,1.661,4.18,0s18.958-26.384,20.602-28.026
		c1.643-1.642,3.135-1.045,4.18,0s23.734,24.631,25.676,26.571s3.434,1.94,5.373,0s30.453-57.621,32.244-60.905
		C296.072,73.681,295.773,72.188,294.281,70.397z M116.846,115.511c-9.973,10.466-22.953,15.697-38.946,15.697
		c-15.304,0-28.31-5.306-39.02-15.919c-10.713-10.611-16.067-23.768-16.067-39.464c0-15.697,5.354-28.851,16.067-39.464
		C49.59,25.75,62.596,20.442,77.9,20.442c7.601,0,14.857,1.48,21.768,4.442c6.909,2.961,12.439,6.911,16.585,11.847l-9.33,9.329
		c-7.01-8.39-16.684-12.587-29.023-12.587c-11.157,0-20.806,3.924-28.951,11.772c-8.145,7.849-12.217,18.043-12.217,30.579
		c0,12.539,4.072,22.73,12.217,30.58c8.145,7.848,17.793,11.771,28.951,11.771c11.847,0,21.717-3.876,29.617-11.775
		c5.131-5.131,8.093-12.4,8.884-21.4H77.5V72h51.785c0.493,3,0.74,5.492,0.74,8.059C130.025,94.866,125.631,106.727,116.846,115.511
		z M176.5,100h-7v-5h-0.43c-1.153,2-2.897,3.479-5.231,4.738c-2.334,1.259-4.971,1.896-7.907,1.896
		c-4.982,0-9.284-1.962-12.903-5.896c-3.619-3.935-5.429-8.81-5.429-14.632c0-5.821,1.81-10.698,5.429-14.632
		c3.619-3.934,7.919-5.9,12.903-5.9c2.938,0,5.573,0.538,7.907,1.797c2.334,1.259,4.078,2.628,5.231,4.628h0.43v-5h7V100z
		 M205.891,68.599c-0.942-0.366-2.229-0.55-3.854-0.55c-2.624,0-4.717,1.036-6.735,3.107c-2.021,2.073-2.802,4.787-2.802,8.144V100
		h-8V62h7v6h0.545c0.732-2,2.242-3.765,4.523-5.129c2.281-1.363,4.496-2.014,6.647-2.014c2.099,0,3.907,0.33,5.429,0.959
		L205.891,68.599z M249.5,100h-7v-5h0.134c-1.153,2-2.897,3.479-5.231,4.738c-2.334,1.259-4.971,1.896-7.906,1.896
		c-4.984,0-9.284-1.962-12.903-5.896c-3.618-3.935-5.429-8.81-5.429-14.632c0-5.821,1.811-10.698,5.429-14.632
		c3.619-3.934,7.919-5.9,12.903-5.9c2.938,0,5.572,0.538,7.906,1.797c2.334,1.259,4.078,2.629,5.231,4.629H242.5v-5h7V100z
		 M266.5,100h-8V62h8V100z M266.236,52.156c-0.998,0.997-2.203,1.495-3.619,1.495s-2.623-0.498-3.619-1.495
		c-0.997-0.996-1.495-2.203-1.495-3.619c0-1.417,0.498-2.623,1.495-3.619c0.996-0.996,2.203-1.495,3.619-1.495
		s2.622,0.499,3.619,1.495c0.996,0.997,1.494,2.203,1.494,3.619S267.232,51.16,266.236,52.156z"/>
</g>
</svg>
